# xmcd
#
# Track frame offsets:
#	150
#	8647
#	23006
#	35115
#	47628
#	61085
#	73974
#	84509
#	96033
#	115306
#	125447
#	138542
#	154810
#	171959
#
# Disc length: 2425 seconds
#
# Revision: 1
# Processed by: cddbd v1.5.2PL0 Copyright (c) Steve Scherf et al.
# Submitted via: audiograbber 1.80
#
DISCID=ba09770e
DTITLE=Kreni - Tohle ja znam
DYEAR=1900
DGENRE=
TTITLE0=Blue Night
TTITLE1=Modra zar
TTITLE2=Jo tak tohle ja znam
TTITLE3=Love Please Come Home
TTITLE4=Ty vis
TTITLE5=Ulma's Breakdown
TTITLE6=Uz ani den,uz ani chvili
TTITLE7=Mama Don't Allow
TTITLE8=Little Maggie
TTITLE9=Mam lhat i vam
TTITLE10=Roky Road Blues
TTITLE11=Srdce ledovy
TTITLE12=Cas prazdnin
TTITLE13=Sitting On The Top Of The World
EXTD=
EXTT0=
EXTT1=
EXTT2=
EXTT3=
EXTT4=
EXTT5=
EXTT6=
EXTT7=
EXTT8=
EXTT9=
EXTT10=
EXTT11=
EXTT12=
EXTT13=
PLAYORDER=
